<svg xmlns:inkscape="http://www.inkscape.org/namespaces/inkscape" xmlns:sodipodi="http://sodipodi.sourceforge.net/DTD/sodipodi-0.dtd" xmlns="http://www.w3.org/2000/svg" xmlns:svg="http://www.w3.org/2000/svg" xmlns:rdf="http://www.w3.org/1999/02/22-rdf-syntax-ns#" xmlns:cc="http://creativecommons.org/ns#" xmlns:dc="http://purl.org/dc/elements/1.1/" id="svg2" version="1.1" inkscape:version="1.2.1 (9c6d41e410, 2022-07-14)" width="658" height="640" viewBox="0 0 658 640" sodipodi:docname="Holosiiv_raion_kyiv.svg">
    <title id="title4205">Kiev</title>
    <sodipodi:namedview pagecolor="#ffffff" bordercolor="transparent" borderopacity="1" objecttolerance="10" gridtolerance="10" guidetolerance="10" inkscape:pageopacity="0" inkscape:pageshadow="2" inkscape:window-width="1920" inkscape:window-height="974" id="namedview4" showgrid="false" inkscape:zoom="2" inkscape:cx="359" inkscape:cy="210.25" inkscape:window-x="-11" inkscape:window-y="-11" inkscape:window-maximized="1" inkscape:current-layer="layer1" fit-margin-top="0" fit-margin-left="0" fit-margin-right="0" fit-margin-bottom="0" inkscape:showpageshadow="0" inkscape:pagecheckerboard="0" inkscape:deskcolor="#d1d1d1"/>
     <g inkscape:groupmode="layer" id="layer1" inkscape:label="Barvy" style="display:inline;fill:#f7e2b9;fill-opacity:1">

<!--         Pechersk-->
         <path style="fill:#333;fill-opacity:1;stroke-dasharray:none;stroke-opacity:1" d="m 353.32924,337.30022 c -9.846,-2.55326 -17.94411,-4.68459 -17.9958,-4.73628 -0.0517,-0.0517 0.42185,-1.3327 1.05231,-2.8467 l 1.14629,-2.75271 -4.78506,-9.86332 -4.78505,-9.86331 -0.36498,-11.8944 -0.36497,-11.89439 1.8525,-1.89419 c 1.01887,-1.0418 2.45117,-2.53058 3.18288,-3.3084 l 1.33038,-1.41422 0.32026,-3.44714 c 0.17614,-1.89593 0.4147,-3.64602 0.53013,-3.88909 0.11543,-0.24307 1.58834,-2.22196 3.27314,-4.39754 l 3.06328,-3.95561 -0.11912,-1.72943 -0.11911,-1.72942 0.64857,-0.21405 c 0.35671,-0.11773 1.61329,-0.42552 2.7924,-0.68398 l 2.14384,-0.46994 4.93582,3.74977 c 4.8842,3.71054 4.99944,3.81322 11.01655,9.81616 5.5335,5.52046 6.38737,6.45415 9.48814,10.37518 l 3.40742,4.30879 2.36052,7.53525 2.36052,7.53525 2.44427,5.00196 c 1.34435,2.75109 2.40511,5.06534 2.35724,5.14279 -0.0479,0.0774 -0.75593,0.39942 -1.57348,0.71549 l -1.48645,0.57467 -0.11363,1.53039 c -0.0625,0.84171 -0.16168,2.1356 -0.2204,2.87531 l -0.10676,1.34492 2.98165,1.81621 2.98164,1.8162 1.28164,1.98526 c 0.70489,1.09189 1.28163,2.06492 1.28163,2.16228 0,0.0974 -1.63623,0.84415 -3.63607,1.65952 l -3.63606,1.48249 -5.42374,7.10792 c -2.98306,3.90935 -5.46352,7.10402 -5.51213,7.09926 -0.0486,-0.005 -8.14421,-2.09769 -17.99021,-4.65095 z" id="path18927"/>

<!--         Desna-->
         <path style="fill:#333;fill-opacity:1;stroke-dasharray:none;stroke-opacity:1" d="m 465.3505,274.63217 c -0.0858,-0.15111 -0.58171,-1.56763 -1.10191,-3.14783 l -0.94582,-2.87309 -3.16668,-1.45064 -3.16668,-1.45064 -2.52927,0.91236 c -2.52116,0.90944 -2.53887,0.9106 -5.52352,0.36256 -1.64684,-0.30239 -3.05201,-0.60755 -3.12259,-0.67814 -0.0706,-0.0706 0.26533,-1.54958 0.7465,-3.28667 l 0.87483,-3.15834 -2.47206,-7.24784 c -1.35963,-3.98632 -2.9103,-8.42784 -3.44593,-9.87006 l -0.97387,-2.62221 -6.18517,-3.95494 -6.18518,-3.95495 -2.91681,-6.4716 c -1.60425,-3.55939 -2.91658,-6.64543 -2.91628,-6.85788 2.9e-4,-0.21244 1.03444,-2.10702 2.29809,-4.21016 1.26366,-2.10314 2.29757,-4.08663 2.29757,-4.40775 0,-0.32112 -0.75572,-3.91589 -1.67938,-7.98837 l -1.67938,-7.40453 -19.83011,0.22358 -19.8301,0.22358 0.16661,-9.82038 0.16661,-9.82037 -2.16874,-6.99685 c -1.1928,-3.84828 -2.07965,-7.14099 -1.97078,-7.31715 0.10887,-0.17616 1.05422,-0.32029 2.10076,-0.32029 1.04655,0 2.00537,-0.16594 2.13072,-0.36875 0.12534,-0.20281 -0.1286,-3.36659 -0.56432,-7.03061 l -0.79222,-6.66186 -6.14339,-7.89328 -6.14338,-7.89329 2.76621,-2.76622 2.76622,-2.76622 48.92652,5.13501 c 26.90959,2.82425 48.9517,5.09701 48.98246,5.05058 0.0308,-0.0464 0.81736,-2.23227 1.74798,-4.8574 0.94302,-2.66011 2.72522,-6.65107 4.02601,-9.01561 2.24748,-4.08543 2.35397,-4.39148 2.87371,-8.25922 l 0.53975,-4.01657 2.82843,-1.72335 c 2.67252,-1.62836 3.09152,-1.76455 7.6014,-2.47077 l 4.77297,-0.74742 8.83883,-5.497009 c 4.86136,-3.023355 9.16384,-5.708985 9.56106,-5.968062 0.70878,-0.462289 0.73608,-0.358938 1.4677,5.556035 0.41002,3.314896 0.81972,6.101316 0.91045,6.192046 0.14203,0.14203 17.26396,-2.59905 17.44885,-2.79342 0.0373,-0.0392 -0.0727,-1.50314 -0.2444,-3.253231 -0.1717,-1.750089 -0.88763,-9.241864 -1.59095,-16.64839 l -1.27876,-13.46641 5.51297,-7.460395 c 3.03213,-4.103217 5.51297,-7.649237 5.51297,-7.880045 0,-0.230807 -0.63408,-1.568313 -1.40906,-2.972234 l -1.40906,-2.552585 4.9559,-0.236578 4.9559,-0.236577 11.82258,6.570913 11.82258,6.570914 7.1621,-0.53295 c 3.93916,-0.293123 7.20882,-0.486235 7.26592,-0.42914 0.0571,0.0571 0.94155,2.983328 1.96546,6.502738 1.02391,3.51941 1.95791,6.495179 2.07556,6.61282 0.11764,0.117641 3.10876,-0.06086 6.64694,-0.396669 6.36344,-0.603954 6.43661,-0.620443 6.76096,-1.523676 0.88353,-2.460373 0.54313,-2.670467 6.12025,3.777414 2.87564,3.324614 5.41115,6.120461 5.63447,6.212993 0.22332,0.09253 4.46306,1.867506 9.42165,3.944392 4.95859,2.076882 9.40502,3.929202 9.88097,4.116263 l 0.86536,0.340108 -1.00748,0.660897 -1.00748,0.660898 0.0787,5.061643 0.0787,5.061647 1.08361,0.90463 1.08361,0.90464 2.56149,14.83338 c 1.40882,8.15836 2.66906,15.48017 2.80054,16.27069 0.23863,1.4348 0.23546,1.43981 -1.81393,2.86674 -1.83261,1.27599 -2.51312,1.51122 -6.33966,2.19148 -3.89073,0.69166 -4.82375,1.02051 -10.10099,3.56018 l -5.81429,2.79813 -5.39511,0.37898 c -2.9673,0.20844 -5.68253,0.37898 -6.03384,0.37898 -0.50911,0 -22.00477,13.80551 -23.10878,14.84153 -0.16086,0.15095 0.21867,0.85662 0.8434,1.56815 l 1.13587,1.29368 -0.63193,1.40137 c -0.34756,0.77075 -0.7459,1.40137 -0.8852,1.40137 -0.1393,0 -1.34815,-1.34417 -2.68634,-2.98706 l -2.43307,-2.98705 -3.44715,-0.0712 c -1.89593,-0.0392 -3.62538,-0.0871 -3.84323,-0.10654 -0.4922,-0.0439 -1.67878,2.81035 -1.70548,4.10252 -0.0186,0.90036 0.16325,1.01081 3.13056,1.90134 l 3.15032,0.94544 1.12186,4.07701 c 1.73155,6.29269 2.31658,5.33739 -5.56907,9.09384 -3.74475,1.78387 -6.91178,3.34655 -7.03786,3.47263 -0.12607,0.12607 0.26633,1.02641 0.87201,2.00074 l 1.10124,1.77151 -2.01833,0.0107 -2.01833,0.0107 -4.06453,3.36442 c -2.23549,1.85043 -4.18085,3.48074 -4.32302,3.62291 -0.14216,0.14216 0.0369,1.9923 0.3979,4.11142 0.47835,2.80786 0.83579,3.99099 1.31781,4.36193 0.36379,0.27995 0.50233,0.57691 0.30788,0.65992 -0.19446,0.083 -20.00228,9.01739 -44.0174,19.85419 l -43.66384,19.70327 -0.0893,6.1798 -0.0893,6.1798 3.62488,1.9067 c 1.99367,1.04869 3.67586,1.94821 3.73818,1.99894 0.16705,0.13596 -2.12272,11.60767 -2.37509,11.89921 -0.11832,0.13667 -1.00084,-0.24055 -1.96117,-0.83827 -2.03365,-1.26578 -1.75924,-1.36159 -5.89157,2.05716 -1.50514,1.24524 -2.80687,2.14043 -2.89272,1.98933 z" id="path21317"/>
        <path style="fill:#333;fill-opacity:1;stroke-dasharray:none;stroke-opacity:1" d="m 351.63546,194.1892 -1.53092,-3.62392 0.1792,-13.78859 0.17921,-13.78858 3.51633,-6.43643 3.51634,-6.43643 1.21086,0.85358 c 1.04451,0.73631 1.98807,0.93083 6.86772,1.41584 3.11127,0.30925 5.82051,0.61541 6.02052,0.68036 0.20002,0.0649 1.13587,2.0615 2.07967,4.43677 l 1.71601,4.31867 1.98619,-0.24382 1.9862,-0.24382 -1.00565,1.0586 c -0.97371,1.02498 -0.99823,1.14107 -0.77239,3.65606 l 0.23325,2.59748 -2.93992,1.51707 c -4.25547,2.19593 -6.36743,3.58053 -6.20368,4.06712 0.16626,0.49407 3.98675,0.57247 7.9084,0.16229 l 2.52332,-0.26392 0.15984,1.08903 c 0.14937,1.01776 0.0421,1.14168 -1.63944,1.89328 -5.31838,2.37721 -6.60838,3.10736 -6.49992,3.67901 0.0808,0.42585 0.56482,0.61323 1.78702,0.6918 1.83122,0.11772 1.95484,0.33956 1.3549,2.43142 -0.28893,1.00744 -0.15908,1.34558 1.28894,3.35643 0.88564,1.22986 1.65348,2.28927 1.70632,2.35423 0.0528,0.065 0.7456,0.20524 1.53948,0.31172 0.79387,0.10648 1.44152,0.29198 1.43921,0.41221 -0.014,0.72856 -1.07299,4.05517 -1.42656,4.4812 -0.31662,0.3815 -1.30163,0.51039 -3.90065,0.51039 h -3.47706 l -1.10118,-3.62392 c -0.60564,-1.99316 -1.43924,-4.73762 -1.85242,-6.0988 -0.41319,-1.36118 -0.83971,-2.58665 -0.94784,-2.72326 -0.1939,-0.24499 -7.25623,9.42752 -7.66918,10.50363 -0.11702,0.30496 0.0698,0.86674 0.41524,1.24841 0.61767,0.68251 0.59164,0.69394 -1.5803,0.69394 -2.0127,0 -2.33635,0.1096 -3.65397,1.23743 -0.79511,0.68059 -1.54387,1.23744 -1.66391,1.23744 -0.12004,0 -0.90716,-1.63076 -1.74918,-3.62392 z" id="path21320"/>

<!--Dnipro-->
         <path style="fill:#333;fill-opacity:1;stroke-dasharray:none;stroke-opacity:1" d="m 542.17412,235.54031 v -22.73045 l 9.24779,-4.15061 9.24779,-4.15061 3.03819,1.0123 3.03819,1.0123 0.10611,5.27427 0.1061,5.27427 -1.64403,5.12653 -1.64403,5.12652 1.44954,2.55242 c 0.79725,1.40383 1.44954,2.87549 1.44954,3.27037 0,0.39487 0.16624,0.71795 0.36943,0.71795 1.01721,0 -6.45806,7.84308 -14.90573,15.63914 -5.21833,4.81583 -9.57135,8.75604 -9.67338,8.75604 -0.10203,0 -0.18551,-10.2287 -0.18551,-22.73044 z" id="path21324"/>
         <path style="fill:#333;fill-opacity:1;stroke-dasharray:none;stroke-opacity:1" d="m 355.67471,258.34213 c -2.81959,-2.45854 -5.15226,-4.51452 -5.18371,-4.56883 -0.0315,-0.0543 -1.01481,-3.23255 -2.18523,-7.06276 l -2.12804,-6.96402 2.3089,-4.74744 2.30889,-4.74743 1.47873,-2.04592 c 0.8133,-1.12525 3.15826,-4.1008 5.21102,-6.61234 2.93922,-3.59611 3.72345,-4.60755 3.69071,-4.75999 -0.0229,-0.10646 -1.40318,-3.35483 -3.06735,-7.2186 -2.77957,-6.45345 -3.55054,-8.28629 -4.1145,-9.78154 l -0.20484,-0.54312 1.42297,-1.18045 c 0.78263,-0.64925 1.52505,-1.2498 1.64982,-1.33455 0.20263,-0.13764 0.49747,-0.15416 2.76174,-0.15468 l 2.5349,-5.8e-4 3.80895,4.54995 c 2.09493,2.50247 3.82943,4.6033 3.85445,4.66851 0.0385,0.10029 -2.10919,3.06752 -2.22026,3.06752 -0.021,0 -0.5515,-1.0242 -1.1788,-2.276 -0.91788,-1.83165 -1.14996,-2.23286 -1.18871,-2.05503 -0.0265,0.12153 -0.35427,3.82214 -0.72842,8.22357 l -0.68028,8.00261 1.82883,7.68632 c 1.00586,4.22749 1.89862,7.94487 1.98391,8.26086 0.14798,0.54825 0.34829,0.81859 4.37978,5.91091 l 4.22471,5.33639 1.57123,7.12637 c 0.86418,3.9195 1.59925,7.25608 1.63349,7.41463 l 0.0622,0.28826 -3.60415,-0.0231 -3.60415,-0.0231 -3.62884,-6.25272 c -1.99586,-3.439 -3.66861,-6.2535 -3.71722,-6.25444 -0.0486,-9.5e-4 -1.23345,0.3439 -2.63296,0.76632 -1.70187,0.51368 -2.53116,0.80297 -2.50409,0.87352 0.0223,0.058 1.78622,2.48712 3.9199,5.39801 2.13368,2.91089 3.90921,5.34225 3.94562,5.40302 0.0525,0.0877 -0.65121,0.10939 -3.40827,0.10521 l -3.47446,-0.005 -5.12652,-4.47008 z" id="path21305"/>
         <path style="fill:#333;fill-opacity:1;troke-dasharray:none;stroke-opacity:1" d="m 373.09197,202.35568 c -0.0958,-0.27066 -1.45052,-5.77791 -1.42704,-5.80138 0.0138,-0.0139 1.36272,-0.0147 2.99749,-0.002 l 2.97231,0.0233 -2.21544,2.91682 c -1.21849,1.60425 -2.2308,2.93245 -2.24958,2.95156 -0.0188,0.0191 -0.0538,-0.0207 -0.0777,-0.0884 z" id="path21307"/>
         <path style="fill:#333;fill-opacity:1;stroke-dasharray:none;stroke-opacity:1" d="m 400.14688,269.69495 c -0.0278,-0.10939 -0.86302,-3.24165 -1.85607,-6.96059 l -1.80554,-6.76171 -5.01396,-9.57142 -5.01396,-9.57142 -0.23272,0.15226 c -0.12799,0.0838 -1.31403,0.86353 -2.63564,1.73284 l -2.40292,1.58058 0.17772,0.41396 c 0.57587,1.34137 1.14035,2.78215 1.10418,2.81832 -0.0231,0.0231 -0.38993,0.009 -0.8152,-0.0321 l -0.77321,-0.0741 -5.91841,-7.68723 -5.91841,-7.68722 -0.11743,-7.16202 c -0.0646,-3.93911 -0.11912,-7.48422 -0.12118,-7.87802 l -0.004,-0.71601 2.29385,-1.60597 2.29385,-1.60597 0.70676,0.0239 0.70675,0.0239 4.51241,-5.60495 4.5124,-5.60495 v -0.73691 -0.73692 l 1.83406,3.4e-4 c 1.00873,1.9e-4 9.68218,-0.0619 19.27433,-0.13806 9.59215,-0.0761 17.48603,-0.12314 17.54194,-0.1045 0.0559,0.0186 0.82497,3.19261 1.70921,7.05419 l 1.60753,7.0203 -2.51786,4.21686 -2.51787,4.21685 3.15294,7.14552 3.15295,7.14551 6.24661,3.99706 6.24662,3.99705 0.36701,1.03687 c 3.18321,8.99327 4.07289,11.53058 4.84403,13.81496 0.50163,1.486 0.99925,3.01257 1.10583,3.39237 0.22997,0.81959 0.31145,0.39369 -0.94382,4.9335 -0.4673,1.69001 -0.83362,3.0887 -0.81405,3.1082 0.0196,0.0195 1.78467,0.37266 3.92243,0.7848 l 3.88685,0.74935 2.52131,-0.86249 2.52131,-0.8625 2.60745,1.18698 c 2.37132,1.07949 2.82843,1.32935 2.82843,1.54606 0,0.0393 -13.9964,0.0715 -31.10312,0.0715 h -31.10311 z" id="path21309"/>
         <path style="fill:#333;fill-opacity:1;stroke-dasharray:none;stroke-opacity:1" d="m 394.21307,295.33742 -5.64699,-4.59418 -7.72782,-13.30912 c -4.2503,-7.32002 -7.88458,-13.57631 -8.07617,-13.90287 l -0.34835,-0.59375 h 3.55477 3.55476 l 0.91765,4.18614 c 0.5047,2.30237 0.956,4.24821 1.00289,4.32408 0.0607,0.0981 0.81094,0.11164 2.60007,0.0468 2.474,-0.0897 2.51383,-0.0954 2.45452,-0.35533 -0.15385,-0.67419 -4.1856,-23.03329 -4.18336,-23.19995 0.002,-0.11313 0.55677,-0.47705 1.38075,-0.90493 l 1.37821,-0.71571 0.22342,0.52821 c 0.12289,0.29051 0.47186,1.1586 0.7755,1.9291 l 0.55208,1.4009 3.39687,3.88989 c 2.8038,3.21073 3.40933,3.97007 3.46817,4.3491 0.0392,0.25257 0.30064,2.7271 0.58095,5.49897 l 0.50966,5.03976 1.30988,2.30233 1.30988,2.30233 -0.13102,5.84541 c -0.0721,3.21497 -0.13122,6.11086 -0.13146,6.43531 l -3.7e-4,0.5899 1.53125,1.14881 c 0.84219,0.63184 1.5547,1.16797 1.58337,1.19139 0.0287,0.0234 0.23305,1.23394 0.45418,2.69005 l 0.40206,2.64747 -0.88378,1.1758 -0.88379,1.17579 0.38676,1.70795 c 0.21272,0.93937 0.37455,1.72068 0.35963,1.73624 -0.0149,0.0156 -2.56827,-2.03907 -5.67411,-4.56588 z" id="path21311"/>
         <path style="fill:#333;fill-opacity:1;stroke-dasharray:none;stroke-opacity:1" d="m 403.93915,318.73212 c 9e-4,-0.12767 0.14073,-7.20712 0.31072,-15.73212 0.17,-8.525 0.30988,-15.70729 0.31086,-15.96063 0.002,-0.45138 -0.0479,-0.4991 -2.47184,-2.375 l -2.4736,-1.91437 0.79528,-4.5625 0.79528,-4.5625 -0.48894,-1.84375 -0.48893,-1.84375 h 30.71413 c 16.89278,0 30.87631,-0.0324 31.07451,-0.0721 l 0.36037,-0.0721 1.2345,3.63598 c 0.85699,2.5241 1.27717,3.60327 1.37401,3.52901 0.0767,-0.0588 1.75294,-1.43412 3.72493,-3.0562 l 3.58544,-2.94924 2.26807,1.4298 c 2.12616,1.34034 2.49856,1.54218 2.49856,1.35422 0,-0.0416 0.64687,-3.32147 1.4375,-7.28867 0.79062,-3.96721 1.43635,-7.32226 1.43495,-7.45567 -0.002,-0.19141 -0.82186,-0.66265 -3.88663,-2.23398 l -3.88408,-1.9914 0.0758,-2.8211 c 0.0417,-1.55161 0.10897,-3.94898 0.14949,-5.3275 l 0.0737,-2.50639 34.63354,-15.61861 c 19.04844,-8.59023 34.7364,-15.65898 34.86213,-15.70832 0.22096,-0.0867 0.2286,0.67984 0.2286,22.9434 v 23.03312 l -9.5096,8.75546 -9.5096,8.75545 -17.2206,7.02613 -17.2206,7.02612 -6.05105,0.74977 -6.05105,0.74978 -36.125,13.4838 c -19.86875,7.4161 -36.22344,13.52254 -36.34375,13.56987 -0.16093,0.0633 -0.21832,0.0247 -0.2171,-0.14606 z" id="path21315"/>

<!--         Darnytsa-->
         <path style="fill:#333;fill-opacity:1;stroke-dasharray:none;stroke-opacity:1" d="m 525.22724,275.86663 c 0.0356,-0.0328 2.19266,-2.018 4.79349,-4.41148 2.60082,-2.39348 11.05351,-10.17759 18.78375,-17.29801 l 14.05499,-12.94623 0.52909,-0.10189 c 0.43575,-0.0839 4.04169,-0.5047 4.07454,-0.47547 0.005,0.005 0.15953,2.6527 0.34239,5.8841 0.18286,3.2314 0.3375,5.90817 0.34364,5.94838 0.006,0.0402 0.38411,0.4719 0.83994,0.95932 l 0.82876,0.8862 -0.29843,0.0876 c -0.16414,0.0482 -2.5656,0.73619 -5.33658,1.52895 -2.77097,0.79277 -5.07515,1.45232 -5.12039,1.46568 -0.0708,0.0209 -0.0538,0.0532 0.12153,0.23119 0.11209,0.1138 0.20379,0.22829 0.20379,0.25444 0,0.0261 0.18396,0.21405 0.4088,0.41758 0.46279,0.41893 2.64046,2.57594 11.54233,11.43284 l 6.22798,6.19652 h -26.20217 c -22.00657,0 -26.1918,-0.01 -26.13745,-0.0597 z" id="path21328"/>
        <path style="fill:#333;fill-opacity:1;stroke-dasharray:none;stroke-opacity:1" d="m 419.79673,441 c -1.4868,-2.2 -6.00102,-8.16986 -10.03159,-13.26636 l -7.32832,-9.26636 -2.34341,-10.24328 c -2.63922,-11.53627 -2.75163,-13.37399 -1.37481,-22.474 0.77137,-5.09828 1.37204,-7.21664 3.25963,-11.49562 1.27271,-2.88508 2.64569,-6.22255 3.05108,-7.41658 0.59194,-1.74352 4.22069,-23.7533 4.22069,-25.60013 0,-0.64726 4.5945,-0.62111 8.20711,0.0467 1.58993,0.29391 2.99465,0.43052 3.1216,0.30357 0.12695,-0.12695 -0.40133,-1.3679 -1.17395,-2.75766 -1.38904,-2.49856 -1.44155,-2.53307 -4.69165,-3.08388 l -3.28689,-0.55705 -3.14889,-7.49223 c -1.7319,-4.12071 -3.06202,-7.5791 -2.95584,-7.68528 0.10618,-0.10618 16.27728,-6.20355 35.93578,-13.54971 35.27724,-13.1827 35.82087,-13.36627 41.74273,-14.09531 5.88011,-0.72389 6.34468,-0.87843 23.25,-7.73427 9.4875,-3.84759 17.60521,-7.30767 18.03937,-7.68908 0.65183,-0.57264 5.31268,-0.69108 26.75,-0.67973 l 25.96063,0.0137 8.03733,4.11126 8.03734,4.11126 -0.63151,3.25 c -0.34732,1.7875 -0.64537,3.4175 -0.66233,3.62222 -0.017,0.20472 3.7683,2.27427 8.41168,4.599 l 8.44251,4.22677 5.26604,8.85909 5.26604,8.85908 -3.58355,3.94357 c -1.97095,2.16897 -3.64306,4.11011 -3.7158,4.31366 -0.0727,0.20355 2.02702,3.17281 4.66613,6.59835 l 4.79838,6.22826 6.78731,1.37011 c 3.73302,0.75356 6.80826,1.43414 6.83387,1.51241 0.0256,0.0783 1.39365,1.54715 3.04009,3.26417 l 2.99353,3.12187 -2.04594,1.86572 c -1.58246,1.44307 -2.82414,3.54976 -5.48116,9.29963 -1.88938,4.08865 -3.69607,7.53401 -4.01487,7.65635 -0.31881,0.12233 -3.78959,-0.33858 -7.71285,-1.02426 l -7.1332,-1.24669 -2.91482,-2.88441 c -2.04369,-2.02236 -3.0298,-3.43144 -3.29952,-4.7148 L 608,355.38971 l -3.75,0.87611 c -2.0625,0.48187 -6.35941,1.47694 -9.54868,2.21128 l -5.79867,1.33516 -0.57633,4.68966 c -0.93916,7.64215 -0.92938,7.69361 1.93081,10.15675 l 2.50664,2.15867 -1.55345,2.16314 c -1.65374,2.30279 -2.696,2.7288 -6.89782,2.81936 -1.27188,0.0274 -2.83858,0.19771 -3.48156,0.37843 -1.10168,0.30966 -0.98135,0.50885 2.08732,3.45554 3.16789,3.04196 3.271,3.22113 3.79406,6.59234 0.29572,1.90597 0.53768,4.00991 0.53768,4.67542 v 1.21002 l -8.375,-1.69259 -8.375,-1.69259 -5.71687,2.58432 -5.71687,2.58432 -8.71266,-4.3479 c -8.03473,-4.0096 -8.65421,-4.41401 -7.96146,-5.19753 0.68535,-0.77514 0.30013,-1.32424 -4.39442,-6.26394 l -5.14562,-5.41432 -3.48922,3.29156 c -2.64689,2.49693 -3.71979,3.92472 -4.44431,5.91432 -0.70168,1.92685 -1.18242,2.58378 -1.81183,2.47584 -0.71916,-0.12333 -0.85747,0.27816 -0.86125,2.5 -0.004,2.33473 0.17285,2.79435 1.49919,3.89692 1.14435,0.95128 1.57988,1.81756 1.82247,3.625 0.38593,2.87533 -0.28397,3.10574 -1.81715,0.625 -0.59486,-0.9625 -1.24935,-1.75 -1.45442,-1.75 -0.36266,0 -5.04794,9.38868 -5.04637,10.11225 4.3e-4,0.19924 1.57579,2.75196 3.50079,5.67271 3.44209,5.2226 3.87118,6.17371 3.125,6.92688 -0.20625,0.20818 -0.375,0.85888 -0.375,1.44599 0,0.79712 -1.70959,2.2991 -6.75,5.93032 -7.56062,5.44683 -8.77315,5.83927 -10.14883,3.28479 -0.6629,-1.23094 -2.44118,-2.51394 -7.30438,-5.27 l -6.42816,-3.64295 -3.27438,0.33547 -3.27438,0.33547 -0.35589,-1.89709 c -0.22294,-1.18837 -0.14141,-2.19347 0.21824,-2.69046 1.29186,-1.78517 1.06673,-2.49919 -1.95194,-6.19069 -0.17869,-0.21852 -6.16316,0.62523 -13.29881,1.875 -7.13566,1.24977 -13.13312,2.27231 -13.3277,2.27231 -0.19457,0 -0.35377,-1.88746 -0.35377,-4.19436 v -4.19435 l -1.625,-0.2853 c -0.89375,-0.15691 -3.7625,-0.43331 -6.375,-0.61421 l -4.75,-0.32893 -3.08413,1.80858 -3.08414,1.80857 h -9.54863 -9.54863 l 4.22852,8.125 c 2.76014,5.30354 4.67459,8.40155 5.51309,8.92138 l 1.28457,0.79639 -3.6593,1.06325 c -3.0693,0.89182 -3.91881,1.38618 -5.26884,3.06611 l -1.60953,2.00285 1.54204,3.05477 c 0.9915,1.96416 1.48722,3.61982 1.38851,4.6375 -0.14954,1.54163 -0.22377,1.47882 -2.8568,-2.41725 z" id="path21330"/>

<!--         Solomyansk-->
         <path style="fill:#333;fill-opacity:1;stroke-dasharray:none;stroke-opacity:1" d="m 241.47079,362.10781 c -3.43648,-4.12157 -6.27742,-7.52621 -6.3132,-7.56587 -0.0358,-0.0397 -0.67696,-0.1697 -1.42484,-0.28898 -0.74788,-0.11928 -1.44687,-0.23614 -1.5533,-0.25969 -0.13634,-0.0302 -1.33445,-1.66874 -4.0542,-5.54465 -2.12337,-3.02601 -3.95348,-5.58776 -4.06692,-5.69277 l -0.20625,-0.19094 8.6222,-10.85761 c 5.18874,-6.53398 8.57292,-10.86764 8.49844,-10.88282 -0.0681,-0.0139 -2.08591,0.27713 -4.48409,0.64665 -2.49658,0.38469 -4.39343,0.63876 -4.43778,0.59442 -0.0426,-0.0426 -5.67628,-10.77638 -12.51929,-23.85284 l -12.44184,-23.77539 1.06749,-3.61967 1.06748,-3.61968 2.72103,-2.32019 2.72103,-2.32019 29.27082,10e-4 c 16.09895,6.7e-4 29.35435,0.0236 29.45646,0.0511 0.14841,0.0398 0.55435,0.90379 2.02404,4.30772 1.01111,2.34184 1.86324,4.28669 1.8936,4.32189 0.0304,0.0352 2.27191,-0.73233 4.9812,-1.70561 3.02851,-1.08796 4.97081,-1.74248 5.04236,-1.69919 0.064,0.0387 4.24877,3.5905 9.29948,7.8928 5.0507,4.3023 9.23181,7.81121 9.29137,7.79758 0.0596,-0.0136 3.08603,3.52632 6.7255,7.86656 l 6.61723,7.89135 2.59357,7.46882 c 1.42647,4.10785 2.61509,7.52723 2.64138,7.59863 0.0263,0.0714 -1.4613,-1.39491 -3.30576,-3.25846 l -3.35356,-3.38827 -3.17947,0.0765 -3.17947,0.0765 -1.60707,4.28684 c -0.8839,2.35776 -1.58367,4.32661 -1.55505,4.37522 0.0286,0.0486 1.65676,2.5897 3.61807,5.64686 1.9613,3.05717 3.55488,5.56687 3.54128,5.57712 -0.0136,0.0102 -2.31177,0.10512 -5.10705,0.21081 -2.79528,0.1057 -5.43422,0.21662 -5.86431,0.24649 l -0.78198,0.0543 -1.78239,1.52163 -1.78238,1.52163 -2.44538,5.70736 -2.44539,5.70736 -2.49218,3.01199 c -1.3707,1.65659 -2.53694,3.01134 -2.59164,3.01055 -0.0547,-7.9e-4 -1.92447,-0.95538 -4.15501,-2.12132 -2.23055,-1.16594 -4.08406,-2.11989 -4.11892,-2.11989 -0.0855,0 -5.07209,5.1235 -5.02874,5.16685 0.0188,0.0188 1.14769,0.13629 2.50864,0.26108 1.36094,0.12478 2.63771,0.2488 2.83726,0.27559 l 0.36282,0.0487 -0.98437,2.53767 -0.98437,2.53768 -0.43911,0.0293 c -0.24151,0.0161 -3.20346,0.13577 -6.5821,0.2659 l -6.14299,0.2366 0.006,0.39701 c 0.003,0.21835 0.023,1.01226 0.0442,1.76422 l 0.0386,1.36722 -2.87262,1.0984 c -1.57994,0.60413 -2.88048,1.1038 -2.89008,1.11039 -0.01,0.007 -0.22005,1.12445 -0.46767,2.48413 -0.24761,1.35968 -0.47899,2.54397 -0.51416,2.63177 -0.0517,0.12904 -0.34299,-0.15632 -1.52107,-1.49012 -0.80141,-0.90736 -1.51791,-1.72625 -1.59222,-1.81973 -0.13099,-0.16483 -0.22372,-0.13726 -3.0494,0.90648 -1.60286,0.59206 -2.95994,1.12036 -3.01573,1.17397 -0.0558,0.0536 -0.52254,0.99244 -1.03724,2.08624 l -0.9358,1.98874 -0.96831,0.0249 -0.96831,0.0249 -6.24813,-7.49376 z" id="path21342"/>
        <path style="fill:#333;fill-opacity:1;stroke-dasharray:none;stroke-opacity:1" d="m 215.31892,262.09043 c 0.19176,-0.18401 2.33739,-2.02516 4.76807,-4.09144 l 4.41941,-3.75687 1.0692,-3.41537 c 0.58805,-1.87845 1.10983,-3.45601 1.1595,-3.50568 0.0497,-0.0497 10.34749,3.32005 22.88405,7.48827 l 22.79374,7.57857 -28.72131,0.0186 c -28.18284,0.0182 -28.71476,0.0123 -28.37266,-0.31603 z" id="path21344"/>

<!--         Shevchenko-->
         <path style="fill:#333;fill-opacity:1;stroke-dasharray:none;stroke-opacity:1" d="m 296.80807,274.34445 c -4.95859,-4.23415 -9.10025,-7.73619 -9.20369,-7.78231 -0.10345,-0.0461 -2.29023,0.67155 -4.85952,1.59482 -2.56929,0.92327 -4.72668,1.62216 -4.79422,1.55309 -0.0675,-0.0691 -0.8771,-1.87568 -1.79906,-4.01468 l -1.67628,-3.88909 -2.97575,-1.00565 c -1.63666,-0.55311 -12.24327,-4.07572 -23.57024,-7.82804 -11.32696,-3.75231 -20.83313,-6.93 -21.12481,-7.06154 -0.3949,-0.17809 -0.84633,-0.20217 -1.76777,-0.0943 -1.91227,0.22386 -18.99101,1.3001 -19.08823,1.20288 -0.0781,-0.0781 1.43275,-41.35374 1.54111,-42.10052 0.0327,-0.2254 2.04559,1.62209 6.8788,6.3136 l 6.83258,6.63224 9.05735,1.07207 c 4.98155,0.58964 9.07531,1.04983 9.09727,1.02264 0.0219,-0.0272 1.81262,-3.15187 3.97927,-6.94373 2.16665,-3.79186 3.98731,-6.94936 4.04593,-7.01666 0.0994,-0.11411 15.7612,-1.26178 15.8448,-1.16107 0.021,0.0253 1.33326,1.87564 2.91613,4.11186 1.58287,2.23623 2.89385,4.08728 2.9133,4.11346 0.0194,0.0262 1.43592,-0.51079 3.14774,-1.19325 1.71182,-0.68245 3.17778,-1.24083 3.25768,-1.24083 0.14212,0 1.46023,2.52326 1.46023,2.79533 0,0.0758 -0.47729,0.76032 -1.06066,1.52115 -0.58336,0.76083 -1.05992,1.43333 -1.05901,1.49444 0.002,0.15866 4.16239,2.85114 4.40518,2.85114 0.11102,0 1.29285,-0.82136 2.62629,-1.82523 1.33344,-1.00388 2.63684,-1.96346 2.89644,-2.1324 l 0.47201,-0.30716 1.08884,1.57123 1.08883,1.57123 4.09601,0.56513 c 2.25281,0.31082 4.24027,0.56334 4.41658,0.56116 0.30257,-0.004 0.31745,0.24382 0.26516,4.41188 l -0.0554,4.41584 3.27037,0.0478 3.27037,0.0478 1.27161,4.92499 c 0.69938,2.70875 1.296,4.94896 1.32582,4.97825 0.0298,0.0293 3.0619,0.2904 6.73795,0.58023 3.67605,0.28983 6.72455,0.56779 6.77444,0.61768 0.0762,0.0762 2.34811,12.32359 2.35952,12.71951 0.007,0.25545 0.47736,0.12161 4.50061,-1.28163 2.23009,-0.77782 4.21879,-1.41511 4.41935,-1.41622 0.20055,-0.001 1.88911,0.36286 3.75234,0.8088 l 3.3877,0.81081 2.09238,2.47246 c 1.15081,1.35986 2.11447,2.53385 2.14148,2.60887 0.027,0.075 -0.41052,0.27545 -0.97227,0.4454 l -1.02138,0.30898 0.0589,1.99768 0.0589,1.99768 -2.99143,3.8658 c -1.64529,2.12619 -3.08136,4.0249 -3.19127,4.21935 -0.10992,0.19446 -0.3591,1.93145 -0.55374,3.85998 -0.41045,4.06673 -0.006,3.28791 -3.6696,7.06003 l -2.19321,2.25795 -7.45939,-2.29557 -7.45939,-2.29557 -3.02062,2.29152 c -1.66135,1.26034 -3.0535,2.29056 -3.09367,2.28937 -0.0402,-10e-4 -4.13006,-3.46646 -9.08865,-7.70061 z" id="path21346"/>

<!--         Podil-->
         <path style="fill:#333;fill-opacity:1;stroke-dasharray:none;stroke-opacity:1" d="m 340.37206,252.87166 -2.51831,-2.9669 -2.75678,-0.65272 c -1.51623,-0.359 -3.30628,-0.78209 -3.97788,-0.9402 l -1.22111,-0.28747 -3.91135,1.34362 -3.91136,1.34363 -1.11387,-6.20712 c -0.61262,-3.41392 -1.18826,-6.25311 -1.27919,-6.3093 -0.0909,-0.0562 -3.17108,-0.32844 -6.84478,-0.60498 l -6.67945,-0.5028 -1.3162,-5.09704 -1.3162,-5.09705 -3.13464,-2.2e-4 -3.13464,-2.2e-4 -0.0473,-4.28367 -0.0473,-4.28367 -4.53228,-0.61826 -4.53229,-0.61827 -1.21295,-1.75285 c -0.66713,-0.96406 -1.26304,-1.82993 -1.32425,-1.92414 -0.0612,-0.0942 -1.37389,0.77935 -2.91707,1.94126 -1.54318,1.1619 -2.9703,2.2153 -3.17139,2.34088 -0.32548,0.20327 -0.50571,0.13517 -1.64207,-0.62046 -0.7366,-0.48981 -1.24077,-0.94179 -1.19208,-1.06868 0.0464,-0.12094 0.46019,-0.70382 0.91951,-1.2953 l 0.83513,-1.0754 -1.02592,-2.16536 c -0.56425,-1.19095 -1.08294,-2.22973 -1.15264,-2.30841 -0.0697,-0.0787 -1.60261,0.44834 -3.40645,1.17116 l -3.27972,1.3142 -2.8674,-4.04903 -2.86739,-4.04902 -1.2582,0.10706 c -0.69201,0.0589 -4.48649,0.32672 -8.43217,0.59519 -3.94568,0.26847 -7.25282,0.53686 -7.34919,0.59642 -0.0964,0.0596 -1.95926,3.21951 -4.13974,7.02211 l -3.96452,6.91381 -0.53033,-0.091 c -0.29168,-0.0501 -4.07029,-0.50053 -8.3969,-1.00105 l -7.86656,-0.91004 -1.5026,-1.45228 c -0.82643,-0.79876 -4.24835,-4.11842 -7.60428,-7.37703 -3.35592,-3.25862 -6.2197,-5.92585 -6.36396,-5.9272 -0.17631,-0.002 -28.57694,-19.03511 -30.5231,-20.4559 -0.097,-0.0708 -1.11309,-24.54202 -1.02499,-24.68457 0.0581,-0.094 0.17336,-0.17084 0.25619,-0.17084 0.0828,0 8.0132,-3.03428 17.62304,-6.74285 l 17.47244,-6.74285 18.82672,-1.3817 18.82672,-1.3817 8.10644,-0.007 c 7.36538,-0.007 8.09651,0.0187 7.99774,0.27611 -0.0598,0.15581 -0.59777,1.81476 -1.19551,3.68656 l -1.08682,3.40328 0.82082,17.29712 c 0.60825,12.81771 0.87862,17.35082 1.04403,17.50445 0.12276,0.11403 4.7973,4.08824 10.38786,8.83158 5.59056,4.74334 10.60972,9.0064 11.15368,9.47346 l 0.98901,0.8492 3.95515,0.8793 c 2.24807,0.49978 4.03386,0.98527 4.13751,1.12482 0.66493,0.89526 14.14494,16.39323 14.25871,16.39323 0.0781,0 1.2369,-1.59059 2.57516,-3.53465 1.80667,-2.62449 2.46242,-3.45522 2.54663,-3.22618 0.0624,0.16967 0.34188,1.36732 0.62112,2.66145 l 0.50771,2.35296 0.79667,-0.0938 c 0.43817,-0.0516 2.04957,-0.1456 3.5809,-0.20886 l 2.78423,-0.11502 v 2.38079 2.38079 l 3.31457,0.38298 3.31456,0.38299 3.89276,3.9975 3.89276,3.99751 2.10093,9.92134 c 1.15551,5.45674 2.14823,10.09357 2.20604,10.30408 0.0583,0.21235 1.03874,1.09671 2.20235,1.98656 1.18746,0.90808 1.99267,1.63616 1.85616,1.67836 -0.13261,0.041 -0.57199,0.15101 -0.97642,0.24448 l -0.73532,0.16996 z" id="path21348"/>
         <path style="fill:#333;fill-opacity:1;stroke-dasharray:none;stroke-opacity:1" d="m 341.75395,231.08938 c -0.14226,-0.21769 -0.43867,-0.75377 -0.65868,-1.19129 -0.22001,-0.43752 -1.26565,-2.16563 -2.32365,-3.84024 -1.05799,-1.6746 -1.92363,-3.10051 -1.92363,-3.16868 0,-0.10515 2.04171,-5.93212 2.3864,-6.8107 0.0799,-0.20377 -0.0301,-0.39208 -0.35278,-0.60348 l -0.46898,-0.30729 -2.77307,2.769 c -2.38863,2.38513 -2.84922,2.769 -3.32237,2.769 h -0.54931 l 0.63293,-2.55531 c 0.34811,-1.40542 0.58787,-2.60036 0.5328,-2.65543 -0.0551,-0.0551 -1.55632,0.42078 -3.33613,1.05744 l -3.236,1.15757 -0.63457,-0.4248 c -0.34901,-0.23363 -1.40652,-1.13602 -2.35002,-2.00531 l -1.71544,-1.58052 -1.90848,-0.54812 -1.90847,-0.54812 1.76776,-0.004 c 0.97228,-0.002 5.38727,0.13486 9.81111,0.3046 l 8.04334,0.30862 4.05637,-1.28056 4.05636,-1.28056 2.06643,1.05353 2.06643,1.05353 1.26418,-0.46859 c 0.69531,-0.25773 1.2899,-0.43839 1.32132,-0.40149 0.0314,0.0369 0.41528,1.14596 0.85301,2.46455 l 0.79587,2.39745 -4.08573,5.04447 c -2.24715,2.77446 -4.93232,6.08984 -5.96703,7.36751 -1.8382,2.26983 -1.88722,2.31398 -2.13997,1.92725 z" id="path21352"/>

        <!--Obolon -->
         <path style="fill:#333;fill-opacity:1;stroke-dasharray:none;stroke-opacity:1" d="m 301.66943,210.70697 c -3.54879,-4.12514 -6.58573,-7.66139 -6.74875,-7.85834 -0.2287,-0.2763 -1.19423,-0.55914 -4.22739,-1.23839 -2.16204,-0.48417 -3.94587,-0.8803 -3.96407,-0.8803 -0.0182,0 -5.03668,-4.25271 -11.15219,-9.45047 l -11.11909,-9.45046 -0.81736,-16.84507 -0.81735,-16.84507 1.60178,-4.99028 c 0.88099,-2.74465 1.564,-5.02805 1.51782,-5.07423 -0.15592,-0.15592 -55.74865,3.94471 -56.37406,4.15826 -0.34029,0.1162 -8.33067,3.18361 -17.7564,6.81647 l -17.13768,6.60519 -0.53999,-0.50416 c -2.3102,-2.15693 -57.51193,-54.74125 -58.30177,-55.537368 -0.55906,-0.5635 -1.01647,-1.15179 -1.01647,-1.30731 0,-0.255169 0.81311,-0.282765 8.33156,-0.282765 h 8.33155 l 2.75687,2.607453 c 1.51628,1.4341 3.43365,3.26047 4.26083,4.05859 0.95592,0.92234 1.54422,1.37326 1.61443,1.23744 0.0608,-0.11753 0.3773,-1.9439 0.70342,-4.05859 l 0.59294,-3.844893 h 85.76425 85.76425 l 1.55105,4.110063 c 0.85309,2.26053 1.72351,4.54727 1.93428,5.08164 l 0.3832,0.97159 14.38287,9.49906 14.38287,9.49907 2.18945,2.47862 2.18945,2.47861 1.05668,4.90518 c 0.58117,2.69785 1.03402,5.03153 1.00634,5.18597 -0.0678,0.37802 -6.90916,11.63577 -7.0765,11.64464 -0.0725,0.004 0.0325,-0.41064 0.23335,-0.92108 0.31208,-0.79308 0.44503,-2.1043 0.91402,-9.01421 0.30185,-4.44738 0.50721,-8.12775 0.45635,-8.1786 -0.10101,-0.10101 -8.6266,3.37469 -8.86843,3.61547 -0.14031,0.13968 0.12063,16.11784 0.34587,21.17873 l 0.10424,2.34229 h 1.52519 1.5252 l -1.6759,1.68188 -1.67588,1.68188 -0.46239,6.8476 -0.4624,6.8476 0.54635,1.10851 c 0.30049,0.60968 0.63235,1.07551 0.73748,1.03517 0.10513,-0.0404 1.26059,-0.75195 2.5677,-1.58134 l 2.37656,-1.50799 0.95723,-2.53238 c 0.52648,-1.39281 1.00733,-2.59163 1.06856,-2.66404 0.0613,-0.0724 0.40726,0.52539 0.76895,1.32843 l 0.65759,1.46009 -1.48121,4.54592 -1.48121,4.54593 1.27869,2.7877 1.27868,2.7877 -1.25847,1.39781 c -0.69215,0.7688 -1.86986,2.08136 -2.61711,2.91682 l -1.35864,1.519 3.00316,3.0164 3.00317,3.0164 0.10447,1.61264 0.10448,1.61264 2.02768,1.18709 c 1.63347,0.9563 2.07566,1.30194 2.27453,1.77791 0.48503,1.16085 0.42503,1.3242 -0.64076,1.74419 l -0.97227,0.38315 -2.09217,-1.04112 -2.09217,-1.04112 -4.20469,1.33386 -4.20467,1.33385 -11.98429,-0.44888 c -7.44474,-0.27884 -12.02354,-0.38564 -12.08792,-0.28194 -0.95875,1.54418 -4.74661,6.90434 -4.87661,6.90086 -0.0972,-0.003 -3.08034,-3.37983 -6.62913,-7.50497 z" id="path21354"/>
        <path style="fill:#333;fill-opacity:1;stroke-dasharray:none;stroke-opacity:1" d="m 143.25,96.832405 c 0.6875,-0.430703 1.66954,-1.047253 2.18231,-1.37011 l 0.93231,-0.587015 -0.1592,-3.141063 -0.1592,-3.141062 2.85189,0.153067 c 1.56854,0.08419 3.22628,0.210595 3.68388,0.280908 0.6881,0.10573 0.85527,0.03878 0.96665,-0.387145 0.0741,-0.283243 0.33343,-0.514985 0.57636,-0.514985 0.35087,0 0.90074,-0.936838 0.67758,-1.154443 -0.0289,-0.0282 -1.23383,-0.519125 -2.67758,-1.09094 -3.73815,-1.480542 -4.97413,-2.23833 -8.5,-5.211422 -1.71875,-1.449288 -3.17387,-2.672638 -3.23359,-2.718558 -0.0597,-0.04592 0.37849,-0.77418 0.97382,-1.618357 1.03594,-1.468963 1.06207,-1.549785 0.60859,-1.882295 -0.2606,-0.191085 -4.04809,-2.62028 -8.41665,-5.398208 -4.36856,-2.777927 -7.79981,-5.078453 -7.625,-5.11228 0.17481,-0.03383 7.51783,-0.94739 16.31783,-2.030141 l 16,-1.968639 14.75,1.808326 c 8.1125,0.994579 14.77554,1.788849 14.80676,1.765044 0.0312,-0.0238 -0.17901,-4.311487 -0.46718,-9.528184 L 186.81563,44.5 l 0.81705,-1.3125 0.81706,-1.3125 1.40013,4.7e-4 c 2.62592,8.79e-4 28.10425,1.257404 53.02513,2.615061 l 24.875,1.355158 5.5,1.787849 c 3.025,0.983317 5.59619,1.879232 5.71377,1.990923 0.11828,0.112366 0.0954,2.694054 -0.0512,5.779818 -0.14571,3.067209 -0.2419,5.596991 -0.21377,5.621738 0.0281,0.02475 2.52616,0.42752 5.55116,0.895053 l 5.5,0.85006 -0.0877,3.426935 -0.0877,3.426935 h 4.86587 4.86587 l 1.1131,3.1875 1.1131,3.1875 1.60873,0.15828 c 0.8848,0.08705 3.0431,0.171427 4.79623,0.1875 1.75312,0.01608 3.18908,0.113595 3.191,0.21672 0.002,0.103125 -0.80888,1.77077 -1.8018,3.705875 l -1.8053,3.518377 2.5518,6.737873 c 1.40349,3.70583 2.5518,6.819437 2.5518,6.919125 0,0.09969 -38.39063,0.179112 -85.3125,0.1765 L 142,97.6155 Z" id="path21356"/>
        <path style="fill:#333;fill-opacity:1;stroke-dasharray:none;stroke-opacity:1" d="m 111.59787,95.390102 -2.81078,-2.359898 1.22461,-1.077602 c 0.67353,-0.592681 1.28394,-1.073914 1.35645,-1.069406 0.0725,0.0045 0.74491,0.911737 1.49421,2.016064 0.74931,1.104327 1.44702,2.060187 1.55049,2.124134 0.10347,0.06395 2.20629,-0.893999 4.67294,-2.128766 l 4.48481,-2.245033 3.65624,3.425202 3.65623,3.425203 -2.06653,0.0605 c -1.1366,0.03328 -4.84334,0.08952 -8.23721,0.125 l -6.17067,0.0645 z" id="path21358"/>
        <path style="fill:#333;fill-opacity:1;stroke-dasharray:none;stroke-opacity:1" d="m 74.052016,156.01429 c 0.111023,-0.19838 2.826392,-3.00691 6.034153,-6.24116 l 5.832293,-5.88046 3.790769,-0.28873 3.790769,-0.28873 0.959125,-0.90761 c 0.527519,-0.49918 2.646373,-2.67574 4.708565,-4.83681 l 3.74944,-3.9292 -0.48903,-1.3208 c -0.26897,-0.72643 -0.56548,-1.94914 -0.65891,-2.71712 l -0.16988,-1.39632 1.95034,-1.49752 c 1.07269,-0.82364 2.07119,-1.56783 2.21888,-1.65376 0.14769,-0.0859 2.05495,-0.3347 4.23834,-0.55283 2.1834,-0.21813 4.01573,-0.44251 4.07184,-0.49862 0.0561,-0.0561 0.86862,-3.88754 1.80558,-8.51429 l 1.70356,-8.41228 -0.76021,-2.4894 c -0.41812,-1.36917 -0.69861,-2.55102 -0.6233,-2.62632 0.11236,-0.11236 49.11255,46.3699 55.41864,52.5709 l 1.87299,1.84177 h -49.82291 c -43.336095,0 -49.796624,-0.047 -49.621044,-0.36071 z" id="path21364"/>

         <!--Holosiiv-->
         <path style="fill:#333;stroke-width:2.066;stroke-dasharray:none" d="m 383.42865,626.60019 c 0.15435,-0.8801 1.20625,-9.81269 2.33756,-19.85019 l 2.05692,-18.25 -5.11269,-8.625 -5.11269,-8.625 h -10.27507 -10.27507 l -1.58944,-1.54054 -1.58944,-1.54055 1.70673,-5.74689 1.70673,-5.7469 -5.27533,-5.65626 -5.27534,-5.65625 2.00924,-4.15486 c 2.20839,-4.56666 2.39521,-6.36665 1.69078,-16.29061 l -0.31846,-4.48648 -8.49897,-0.57443 c -4.67444,-0.31593 -8.59071,-0.66616 -8.70283,-0.77829 -0.11213,-0.11212 1.49322,-3.01981 3.56743,-6.46153 2.07421,-3.44172 3.77129,-6.43689 3.77129,-6.65592 0,-0.21904 -1.0522,-1.73754 -2.33823,-3.37444 l -2.33823,-2.9762 1.92618,-10.80492 c 1.05939,-5.94271 2.01525,-11.36743 2.12413,-12.05493 0.19615,-1.23857 0.10974,-1.26941 -9.45076,-3.37271 l -9.64871,-2.12272 -4.27208,-4.25228 c -2.34965,-2.33876 -4.49263,-4.24775 -4.76219,-4.24221 -0.26956,0.006 -2.40261,1.24811 -4.74011,2.76128 l -4.25,2.7512 -3.86712,-4.10885 -3.86711,-4.10884 2.33467,-1.36353 c 1.77658,-1.03757 2.53591,-1.88079 3.17652,-3.52743 1.77417,-4.56039 2.05316,-4.02503 -3.70797,-7.11526 -2.86963,-1.53926 -5.34265,-2.79865 -5.4956,-2.79865 -0.15294,0 -0.42431,0.77949 -0.60303,1.73219 -0.17873,0.9527 -0.58268,1.93194 -0.89766,2.17608 -0.5913,0.45831 -9.3159,2.28696 -9.55127,2.00191 -0.0727,-0.0881 -0.27625,-1.10083 -0.45222,-2.25052 -0.31584,-2.06351 -0.28143,-2.12384 2.68042,-4.69999 1.65021,-1.4353 3.00037,-2.78711 3.00037,-3.00401 0,-0.21691 -0.97702,-0.5409 -2.17117,-0.71997 l -2.17116,-0.32559 -1.16141,-7.54144 -1.16141,-7.54145 1.8326,-1.5386 c 1.79583,-1.50774 1.83259,-1.61033 1.83257,-5.11394 l -2e-5,-3.57533 -1.74245,-0.42467 c -1.44667,-0.35258 -2.10446,-1.01486 -3.875,-3.90145 l -2.13255,-3.47678 -6,-1.85018 c -3.3,-1.0176 -6.13078,-1.70305 -6.29061,-1.52322 -0.15984,0.17983 -1.36922,2.80196 -2.68751,5.82696 -1.3183,3.025 -2.57397,5.69395 -2.79039,5.931 -0.21642,0.23705 -2.89732,-0.40331 -5.95755,-1.42302 -5.42513,-1.80773 -5.61545,-1.92209 -7.62225,-4.58007 l -2.05818,-2.72605 1.3689,-5.96664 1.36891,-5.96665 -0.99717,-1.38428 c -0.54845,-0.76136 -1.80424,-2.15968 -2.79066,-3.10737 -0.98642,-0.9477 -1.79349,-1.91344 -1.79349,-2.14611 0,-0.23266 2.7,-3.73143 6,-7.77504 3.3,-4.04362 6,-7.7541 6,-8.24552 0,-0.49142 0.55413,-1.98701 1.23139,-3.32353 1.03715,-2.04672 1.58767,-2.55143 3.48997,-3.19961 l 2.25857,-0.76957 1.98608,2.32352 c 1.09234,1.27793 2.10396,2.20564 2.24803,2.06157 0.14407,-0.14407 0.5486,-1.70104 0.89895,-3.45994 l 0.63701,-3.198 2.75,-1.04392 c 2.43667,-0.92497 2.76737,-1.22011 2.90243,-2.59033 0.18738,-1.90103 1.15242,-2.16044 8.03713,-2.16044 h 4.81456 l 1.39004,-3.58492 c 1.54974,-3.9968 1.40257,-4.39405 -1.6328,-4.40742 l -1.73863,-0.008 1.29173,-1.29173 1.29173,-1.29173 4.18471,2.10403 4.18471,2.10403 1.94957,-2.1873 c 3.39812,-3.8125 4.16311,-5.05951 6.54734,-10.67279 1.60568,-3.78031 2.82693,-5.9111 3.92872,-6.85468 1.52702,-1.30774 1.84557,-1.37041 7.09876,-1.39633 8.60637,-0.0425 8.34291,0.43957 3.72122,-6.80864 l -3.95237,-6.1985 1.29851,-3.50318 1.2985,-3.50318 h 2.55663 c 2.53062,0 2.59816,0.0413 6.63971,4.06187 2.24569,2.23403 4.32161,3.91445 4.61314,3.73427 0.34352,-0.2123 -0.56189,-3.50771 -2.57264,-9.36363 l -3.1027,-9.0357 -6.59344,-7.82324 -6.59344,-7.82323 1.84344,-1.61895 c 1.01389,-0.89043 2.32013,-1.75115 2.90274,-1.91272 1.0343,-0.28683 12.49476,2.96704 13.38126,3.79923 0.24231,0.22746 0.61971,5.82869 0.83866,12.44717 l 0.39809,12.0336 4.68436,9.62584 4.68436,9.62583 -1.36699,3.25 c -0.75185,1.7875 -1.21221,3.29779 -1.02302,3.3562 1.89525,0.5851 37.53968,9.6438 37.94673,9.6438 0.29896,0 2.97587,-3.18026 5.94869,-7.06725 5.12867,-6.70578 5.56846,-7.14053 8.59845,-8.5 3.6657,-1.64469 4.37535,-1.73965 4.79662,-0.64186 0.16692,0.435 0.30008,4.87875 0.2959,9.87501 -0.006,6.92305 -0.24705,10.39252 -1.01418,14.5841 -0.83678,4.57213 -0.95011,6.61093 -0.67176,12.08506 0.28782,5.66051 0.17337,7.48571 -0.81517,13 -1.01194,5.64478 -1.47678,7.04525 -3.8718,11.66494 l -2.72179,5.25 0.18878,5.125 c 0.10382,2.81875 0.0971,5.125 -0.0149,5.125 -0.11199,0 -0.98253,-0.48139 -1.93454,-1.06976 l -1.73091,-1.06977 -1.8281,1.85082 -1.8281,1.85082 2.80551,2.63257 2.80551,2.63256 -0.50672,2.79558 -0.50672,2.79559 4.20121,4.70769 4.20121,4.7077 3.65472,0.35665 c 3.59795,0.3511 3.74713,0.42362 9.60404,4.66857 4.40006,3.18906 6.01276,4.64774 6.19292,5.60146 0.13397,0.70924 0.50489,2.94252 0.82428,4.96285 0.5334,3.37415 0.71632,3.75335 2.24599,4.65588 1.5216,0.89776 5.52056,5.45786 8.0423,9.17079 0.56032,0.825 2.7535,4.82296 4.87372,8.88434 l 3.85496,7.38434 -1.96169,-0.31368 c -1.79616,-0.28722 -1.99859,-0.20297 -2.39906,0.99846 -0.41248,1.23744 -0.49983,1.26842 -1.53398,0.54407 -1.04811,-0.73412 -1.06434,-0.8595 -0.36706,-2.8358 0.76671,-2.17308 0.60614,-2.99901 -0.38948,-2.00339 -0.9334,0.9334 -1.39166,0.69877 -1.39166,-0.71254 0,-1.13523 -0.15909,-1.26428 -1.22795,-0.99601 -3.69928,0.92846 -3.77205,1.01629 -3.77205,4.5521 0,2.63497 0.28605,3.83684 1.46072,6.13737 1.7881,3.50188 7.98625,9.71315 10.78928,10.8121 1.42455,0.55852 4.18695,3.05202 9.60095,8.66638 l 7.60094,7.88226 -2.75919,0.4367 c -2.61248,0.41347 -2.83573,0.36336 -4.19866,-0.94241 l -1.43947,-1.3791 -1.49187,1.25532 c -0.85536,0.71974 -2.46694,1.40155 -3.77728,1.59805 -1.25698,0.18849 -2.28542,0.51253 -2.28542,0.72007 0,0.20755 1.2488,0.89496 2.77512,1.52758 1.52631,0.63262 2.70756,1.20522 2.625,1.27243 -0.0826,0.0672 -1.11308,0.26975 -2.29002,0.45007 l -2.13991,0.32788 -2.82782,-5.79105 -2.82781,-5.79105 -3.43218,-2.03902 -3.43218,-2.03902 0.3434,-4.67822 c 0.29092,-3.96294 0.22962,-4.67823 -0.40087,-4.67823 -0.49729,0 -1.04088,1.12007 -1.63797,3.375 -0.49151,1.85625 -1.04551,3.66591 -1.2311,4.02147 -0.23334,0.44705 -1.74858,-0.61165 -4.9119,-3.43195 l -4.57448,-4.07843 -0.14363,-4.31242 c -0.11482,-3.4473 -0.30122,-4.34252 -0.92915,-4.46247 -0.62556,-0.1195 -0.91024,0.69389 -1.398,3.99437 -0.33687,2.27944 -0.7343,4.84698 -0.88317,5.70566 -0.26164,1.50909 -0.008,1.76786 7.58364,7.75 5.72363,4.50991 8.64477,7.20589 10.76816,9.93817 l 2.91385,3.7494 -1.28099,0.67117 c -1.27359,0.66731 -1.25541,0.68633 3.15052,3.29643 3.84073,2.27528 5.19804,2.77932 10.1815,3.78096 5.00348,1.00567 6.08507,1.40891 8.33082,3.1059 5.06252,3.82546 5.0112,3.74199 5.41175,8.80286 l 0.36121,4.56381 -2.05189,3.55896 c -1.12854,1.95743 -2.05189,3.6296 -2.05189,3.71593 0,0.0863 0.73125,0.63023 1.625,1.20865 l 1.625,1.05166 -2.75,-0.26818 C 436.849,539.26519 417.80921,537.75 416.14058,537.75 H 414.25 v 5.01117 5.01118 l 1.88917,2.11382 c 1.03905,1.16261 2.20676,2.52585 2.59492,3.02944 0.38817,0.50358 1.16929,3.74851 1.73583,7.21096 l 1.03008,6.29536 3.75,1.23901 c 2.0625,0.68145 3.87492,1.42887 4.02759,1.66093 0.15268,0.23206 0.67238,2.89799 1.15491,5.92428 0.75805,4.75438 1.19019,6.05873 3.17895,9.59517 l 2.30163,4.09281 -0.51322,17.67295 c -0.28227,9.72012 -0.66112,17.82085 -0.84188,18.00161 -0.18077,0.18077 -10.28026,0.9435 -22.44332,1.69497 -12.16306,0.75147 -23.65635,1.48565 -25.54065,1.63151 l -3.42599,0.2652 z" id="path40265"/>
         <!--Svyatoshin -->
         <path style="fill:#333;fill-opacity:1;stroke-dasharray:none;stroke-opacity:1" d="m 178.22597,306.27887 -1.75103,-1.90861 -4.87245,-9.93766 -4.87245,-9.93765 -0.27314,-7.18498 c -0.15022,-3.95173 -0.30516,-7.53904 -0.34431,-7.97178 l -0.0712,-0.78682 -3.39808,-1.6977 -3.39807,-1.6977 -0.74763,-3.10893 c -0.4112,-1.70991 -0.77857,-3.10906 -0.81639,-3.10923 -0.0378,-1.3e-4 -0.78876,1.2631 -1.66877,2.80728 -0.88001,1.54417 -1.66469,2.85609 -1.74374,2.91537 -0.079,0.0593 -4.58748,0.90319 -10.01873,1.87534 l -9.875,1.76754 -9.5,0.10681 -9.5,0.10682 -14.48882,-4.603 c -7.968858,-2.53164 -14.505461,-4.58636 -14.52579,-4.56603 -0.02033,0.0203 0.02254,1.27224 0.09526,2.78201 0.07272,1.50978 0.107006,3.67621 0.07618,4.81429 l -0.05604,2.06924 -1.227581,2.30576 c -0.67517,1.26817 -2.636676,4.66217 -4.358904,7.54222 l -3.131322,5.23645 0.825795,1.61061 0.825795,1.61062 -2.734386,2.52737 c -1.503913,1.39006 -2.779638,2.54248 -2.834945,2.5609 -0.05531,0.0184 -1.532613,-1.53199 -3.282902,-3.4454 l -3.18232,-3.47892 -3.968321,-1.01155 c -2.182577,-0.55635 -3.989829,-0.97443 -4.016117,-0.92905 -0.02629,0.0454 -0.562538,1.84832 -1.191668,4.00655 -0.629132,2.15821 -1.184379,3.99566 -1.233885,4.08321 -0.25641,0.45347 -9.21705,6.98237 -9.415055,6.86 -0.04299,-0.0266 -1.328592,-2.38343 -2.856886,-5.23745 l -2.778717,-5.18914 2.708973,-3.72034 2.708973,-3.72032 -0.08085,-2.77233 c -0.07579,-2.59891 -0.06664,-2.77981 0.146351,-2.89193 0.253121,-0.13325 1.779882,-0.34088 3.449589,-0.46913 0.932608,-0.0716 1.088446,-0.11487 1.037852,-0.28795 -0.03274,-0.11201 -0.426418,-2.08804 -0.874832,-4.39116 -0.448415,-2.30313 -0.876402,-4.43911 -0.951083,-4.74664 -0.07468,-0.30753 -1.318615,-2.74497 -2.764298,-5.41654 l -2.628515,-4.85739 0.99349,-1.45847 c 8.483143,-12.45343 18.878528,-27.82274 19.098945,-28.23728 l 0.283875,-0.5339 -0.37565,-2.09364 c -0.206609,-1.1515 -0.384993,-2.09785 -0.39641,-2.10299 -0.04669,-0.021 -6.167934,-5.36082 -6.43438,-5.61296 l -0.28862,-0.27311 1.008068,-2.68886 1.00807,-2.68886 -0.69334,-1.64164 -0.693338,-1.64165 1.266083,-4.28428 c 0.696347,-2.35636 1.30384,-4.32416 1.349985,-4.37289 0.07548,-0.0797 3.405793,1.06754 5.144213,1.7721 0.378125,0.15325 0.950214,0.38301 1.271307,0.51057 l 0.583809,0.23194 4.384941,-5.47786 c 2.411719,-3.01282 4.384943,-5.52759 4.384943,-5.58837 0,-0.0608 -0.40118,-0.56035 -0.891511,-1.11015 -0.490332,-0.5498 -0.976155,-1.09694 -1.079609,-1.21588 -0.170565,-0.19609 -0.145386,-0.26837 0.27013,-0.77545 0.252025,-0.30756 1.476645,-1.64138 2.721377,-2.96403 l 2.26315,-2.40482 -0.08315,-4.50722 c -0.04573,-2.47898 -0.116419,-4.8058 -0.157075,-5.17071 l -0.07392,-0.66349 -4.667467,-5.02401 -4.667468,-5.02402 1.46207,-1.46875 1.46207,-1.46875 h 50.209041 50.20904 l 0.0776,1.15625 c 0.0427,0.63594 0.30422,6.33125 0.58117,12.65625 0.35773,8.17003 0.54675,11.5411 0.65278,11.64194 0.0821,0.0781 7.12425,4.8511 15.64925,10.60675 8.525,5.75564 15.5805,10.54146 15.67889,10.63516 0.15506,0.14766 0.0666,3.13537 -0.66448,22.4371 -0.46385,12.24672 -0.81407,22.29605 -0.77827,22.33185 0.0546,0.0546 6.79655,-0.36506 18.32636,-1.14079 1.34062,-0.0902 2.44927,-0.15553 2.46365,-0.14518 0.0144,0.0104 -0.43076,1.48667 -0.98923,3.28073 l -1.01538,3.26192 -7.63614,6.50697 -7.63614,6.50697 -1.16064,3.97579 c -0.63835,2.18668 -1.15848,4.01124 -1.15587,4.05456 0.003,0.0433 3.94225,7.60163 8.75475,16.79623 4.8125,9.1946 8.75,16.73884 8.75,16.76497 0,0.0261 -9.77861,0.0475 -21.73024,0.0475 H 179.977 Z" id="path21360"/>
         <path style="fill:#333;fill-opacity:1;stroke-dasharray:none;stroke-opacity:1" d="m 212.22066,336.9752 -10.27934,-4.89014 -9.97066,-10.88774 c -5.48386,-5.98826 -10.28874,-11.2674 -10.67751,-11.73142 l -0.70685,-0.84369 21.54916,0.0639 21.54916,0.0639 3.73898,7.125 c 2.05644,3.91875 3.83065,7.2195 3.9427,7.33501 0.11204,0.1155 1.68019,-0.0251 3.48477,-0.3125 1.80458,-0.28738 3.33365,-0.52251 3.39795,-0.52251 0.19927,0 -15.23387,19.33003 -15.49902,19.41255 -0.1375,0.0428 -4.8757,-2.12276 -10.52934,-4.81235 z" id="path21362"/>
     </g>
    </svg>