<svg xmlns="http://www.w3.org/2000/svg" width="400" height="150" viewBox="0 0 400 150">
    <g transform="translate(20, 10)">
        <path fill="#673ab7" d="M50 115c-33.1 0-60-22.4-60-50s26.9-50 60-50 60 22.4 60 50-26.9 50-60 50zm0-90c-22.1 0-40 17.9-40 40s17.9 40 40 40 40-17.9 40-40-17.9-40-40-40z"/>
        <path fill="#2196f3" d="M50 35c27.6 0 50 13.4 50 30s-22.4 30-50 30-50-13.4-50-30 22.4-30 50-30zm0 50c16.6 0 30-9 30-20s-13.4-20-30-20-30 9-30 20 13.4 20 30 20z"/>
        <circle fill="#673ab7" cx="50" cy="65" r="15"/>
        <circle fill="#8bc34a" cx="40" cy="60" r="5"/>
        <rect fill="#2196f3" x="50" y="55" width="5" height="20"/>
        <rect fill="#8bc34a" x="60" y="65" width="5" height="10"/>
        <path fill="#8bc34a" d="M10 65c0-16.6 13.4-30 30-30v10c-11 0-20 9-20 20H10z"/>

        <text x="130" y="65" font-family="Arial, sans-serif" font-weight="bold" font-size="36" fill="#673ab7">MAPLYTICS</text>
        <text x="130" y="105" font-family="Arial, sans-serif" font-weight="bold" font-size="36" fill="#8bc34a">VIEW</text>
    </g>
</svg>